<svg  viewBox="0 0 151 127" fill="none" xmlns="http://www.w3.org/2000/svg">
<g clip-path="url(#clip0_298_55)">
<rect width="151" height="127" rx="63.5" fill="url(#paint0_linear_298_55)"/>
<path d="M62.0571 88.4238C66.4161 82.3278 76.4241 70.6431 100.253 54.2243C136.212 29.4488 102.274 6.78739 65.8159 18.8568C61.9157 20.148 51.1081 14.9788 41.0967 20.4246C34.6387 23.9376 37.152 26.6907 34.6374 29.4439C32.1228 32.197 22.4281 32.035 20.3043 39.1838C19.0465 43.4192 22.5273 47.8555 22.0617 51.0434C21.5961 54.2312 17.9216 57.1047 17.7463 61.3131C17.6704 63.0905 18.0116 64.8632 18.7503 66.5297C19.4891 68.1962 20.611 69.7241 22.0519 71.0259C23.4928 72.3277 25.2246 73.378 27.1482 74.1168C29.0718 74.8557 31.1497 75.2685 33.263 75.3319C33.2803 78.8458 34.9117 82.2181 37.8161 84.7441C40.7206 87.27 44.6735 88.7541 48.8485 88.8861C51.5257 88.9684 54.1845 88.484 56.5812 87.4774C58.9593 89.3208 61.0008 89.9005 62.0571 88.4238Z" fill="url(#paint1_linear_298_55)"/>
<path d="M70.9696 17.3562C64.7706 20.7006 57.1013 31.6691 60.4676 46.3931C61.202 49.6058 58.9073 50.5676 56.9443 46.6048C51.0215 34.6494 50.335 23.8675 60.4676 18.7101C62.2293 17.8181 63.2359 18.5407 64.4943 18.4531C66.8876 18.2863 70.11 16.8601 70.9696 17.3562Z" fill="url(#paint2_linear_298_55)"/>
<path d="M62.9165 82.1267C62.9165 78.3167 62.7625 59.5241 62.77 59.2066C50.3332 60.7484 50.5849 40.8517 63.1682 45.72C65.9365 47.2017 73.7382 45.72 72.9832 33.4434C86.5732 45.72 102.351 31.4012 103.704 43.0691C105.552 59.0013 103.693 75.6747 91.9206 75.6759C90.6327 75.6628 89.3487 75.5549 88.0832 75.3534V82.1267C88.0832 86.36 97.1432 88.4767 97.1432 88.4767C97.1432 88.4767 81.4935 100.88 74.9965 100.812C68.4995 100.743 53.8565 88.4767 53.8565 88.4767C53.8565 88.4767 62.9165 86.36 62.9165 82.1267Z" fill="url(#paint3_linear_298_55)"/>
<g style="mix-blend-mode:multiply">
<path d="M88.0831 75.3509C81.8387 74.1862 75.9215 72.0156 70.6582 68.959C70.6582 68.959 75.001 77.8884 88.0669 79.5826L88.0831 75.3509Z" fill="#FFDBC9"/>
</g>
<path d="M121.806 101.178C125.458 108.003 127.343 128.695 127.343 128.695H23.6562C23.6562 128.695 25.5412 108.003 29.1929 101.178C32.3921 95.1993 53.4732 88.3345 59.6511 86.3613C63.2183 89.7175 68.3301 91.8647 75.4996 91.8647C82.6691 91.8647 87.7809 89.7175 91.348 86.3613C97.526 88.3345 118.607 95.1993 121.806 101.178Z" fill="url(#paint4_linear_298_55)"/>
</g>
<defs>
<linearGradient id="paint0_linear_298_55" x1="75.5" y1="127" x2="75.5" y2="0" gradientUnits="userSpaceOnUse">
<stop stop-color="#FFC9B3"/>
<stop offset="1" stop-color="#FFD2C2"/>
</linearGradient>
<linearGradient id="paint1_linear_298_55" x1="64.9077" y1="89.3936" x2="67.1017" y2="14.9348" gradientUnits="userSpaceOnUse">
<stop stop-color="#E6864E"/>
<stop offset="1" stop-color="#E67240"/>
</linearGradient>
<linearGradient id="paint2_linear_298_55" x1="61.8037" y1="17.252" x2="61.8037" y2="49.2076" gradientUnits="userSpaceOnUse">
<stop stop-color="#1D0024"/>
<stop offset="1" stop-color="#100014"/>
</linearGradient>
<linearGradient id="paint3_linear_298_55" x1="78.9527" y1="33.4434" x2="78.9527" y2="100.812" gradientUnits="userSpaceOnUse">
<stop stop-color="#FFE0CC"/>
<stop offset="1" stop-color="#FFEADB"/>
</linearGradient>
<linearGradient id="paint4_linear_298_55" x1="75.4996" y1="86.3613" x2="75.4996" y2="128.695" gradientUnits="userSpaceOnUse">
<stop stop-color="#130027"/>
<stop offset="1" stop-color="#130017"/>
</linearGradient>
<clipPath id="clip0_298_55">
<rect width="151" height="127" rx="63.5" fill="white"/>
</clipPath>
</defs>
</svg>
